
<svg contentScriptType="text/ecmascript" zoomAndPan="magnify"
     xmlns:xlink="http://www.w3.org/1999/xlink" contentStyleType="text/css"
     id="Capa_1" enable-background="new 0 0 512 512" version="1.0" width="512"
     preserveAspectRatio="xMidYMid meet" viewBox="0 0 512 512" height="512"
     xmlns="http://www.w3.org/2000/svg">
    <g>
        <path fill="#FFFFFF"
              d="m277.462 178.723c12.286 10.76 34.4 26.496 58.652 26.496 24.095 0 46.312-15.792 58.651-26.553-12.294-10.767-34.406-26.497-58.651-26.497-24.097 0-46.313 15.792-58.652 26.554z"/>
        <path fill="#FFFFFF"
              d="m225.577 349.729 30.423 18.994 30.423-18.994-30.423-106.954z"/>
        <path fill="#FFFFFF"
              d="m256 75.659c25.997-13.736 53.527-20.959 80.114-20.959 17.774 0 35.965 3.244 53.836 9.482-4.833-10.894-11.17-20.746-19.521-29.167-23.365-23.561-60.795-35.015-114.429-35.015s-91.063 11.454-114.429 35.015c-8.352 8.422-14.689 18.274-19.522 29.168 17.872-6.239 36.063-9.483 53.837-9.483 26.587 0 54.117 7.223 80.114 20.959z"/>
        <path fill="#FFFFFF"
              d="m256 157.581c15.42-13.847 45.06-35.412 80.114-35.412 27.707 0 52.032 13.473 68.627 25.959-.449-16.134-1.57-31.906-4.094-46.755-21.2-10.924-43.342-16.673-64.533-16.673-23.868 0-48.955 7.286-72.547 21.07l-7.567 4.421-7.567-4.421c-23.592-13.784-48.678-21.07-72.546-21.07-21.191 0-43.334 5.749-64.535 16.673-2.523 14.849-3.644 30.621-4.093 46.755 16.595-12.486 40.92-25.959 68.627-25.959 35.054 0 64.694 21.565 80.114 35.412z"/>
        <path fill="#FFFFFF"
              d="m117.234 178.722c12.294 10.767 34.406 26.497 58.651 26.497 24.098 0 46.313-15.792 58.652-26.554-12.286-10.76-34.4-26.496-58.652-26.496-24.094 0-46.312 15.791-58.651 26.553z"/>
        <path fill="#FFFFFF"
              d="m218.366 265.429 13.534-47.58c-15.341 9.378-34.675 17.37-56.015 17.37-27.734 0-52.08-13.5-68.676-25.996.002 1.016.006 2.036.006 3.046 0 13.152 1.142 27.787 3.278 43.295 21.455 11.21 43.926 17.123 65.393 17.123 13.993.001 28.257-2.442 42.48-7.258z"/>
        <path fill="#FFFFFF"
              d="m336.114 235.219c-21.339 0-40.673-7.992-56.015-17.37l13.534 47.58c14.224 4.815 28.488 7.258 42.48 7.258 21.468 0 43.938-5.914 65.392-17.123 2.136-15.508 3.278-30.143 3.278-43.295 0-1.01.004-2.03.006-3.046-16.595 12.496-40.941 25.996-68.675 25.996z"/>
        <path fill="#FFFFFF"
              d="m303.227 299.153 18.226 64.073-65.453 40.863-65.452-40.863 18.226-64.073c-10.984 2.349-21.979 3.534-32.887 3.534-19.494 0-39.51-3.898-59.046-11.385 8 37.287 20.545 76.736 35.948 111.287 5.519 12.38 11.249 23.814 17.133 34.256h172.156c5.884-10.442 11.614-21.876 17.133-34.256 15.404-34.551 27.948-74 35.948-111.287-19.536 7.486-39.551 11.385-59.045 11.385-10.908.001-21.903-1.185-32.887-3.534z"/>
        <path fill="#FFFFFF"
              d="m256 512c21.849 0 44.905-15.914 66.738-45.154h-133.476c21.833 29.24 44.889 45.154 66.738 45.154z"/>
    </g>
</svg>