
<!-- Generator: Adobe Illustrator 19.0.0, SVG Export Plug-In . SVG Version:
6.00 Build 0) -->
<svg contentScriptType="text/ecmascript" zoomAndPan="magnify"
     xmlns:xlink="http://www.w3.org/1999/xlink" contentStyleType="text/css"
     id="Capa_1" style="enable-background:new 0 0 496.8 496.8;" version="1.1"
     xml:space="preserve" preserveAspectRatio="xMidYMid meet"
     viewBox="0 0 496.8 496.8" xmlns="http://www.w3.org/2000/svg" x="0px"
     y="0px">
    <g>
        <g>
            <path fill="#FFFFFF"
                  d="M470.8,57.6L448.4,36V8c0-4.8-3.2-8-8-8h-192c-4.8,0-8,3.2-8,8v28.8L218,59.2c-16.8,16.8-25.6,39.2-25.6,62.4v60    c-20.8-3.2-42.4-4.8-64-4.8c-61.6,0-128,12.8-128,40v240c0,27.2,66.4,40,128,40s128-12.8,128-40v-40h232c4.8,0,8-3.2,8-8V118.4    C496.4,95.2,486.8,72.8,470.8,57.6z M454.8,64H269.2l-8-16h176L454.8,64z M256.4,16h176v16h-176V16z M240.4,248    c0,7.2-38.4,24-112,24v16c43.2,0,88.8-6.4,112-19.2V456c0,7.2-38.4,24-112,24s-112-16.8-112-24v-11.2    c23.2,12.8,68.8,19.2,112,19.2v-16c-73.6,0-112-16.8-112-24V236.8c23.2,12.8,68.8,19.2,112,19.2s88.8-6.4,112-19.2V248z     M128.4,240c-73.6,0-112-16.8-112-24s38.4-24,112-24s112,16.8,112,24S202,240,128.4,240z M256.4,400V216c0-15.2-20-25.6-48-32    v-63.2c0-19.2,7.2-37.6,20.8-51.2L246,52.8l20,40.8c4,8,5.6,16,5.6,24.8V400H256.4z M480.4,400h-192v-16h192V400z M480.4,368h-192    V119.2c0-11.2-2.4-21.6-7.2-32l-4-7.2h191.2c8,11.2,12,24.8,12,38.4V368z"/></g></g>
    <g>
        <g>
            <path fill="#FFFFFF"
                  d="M456.4,128h-128c-4.8,0-8,3.2-8,8v160c0,4.8,3.2,8,8,8h128c4.8,0,8-3.2,8-8V136C464.4,131.2,461.2,128,456.4,128z     M448.4,288h-112V176h112V288z M448.4,160h-112v-16h112V160z"/></g></g>
    <g>
        <g>
            <rect fill="#FFFFFF" width="48" x="104.4" height="16" y="208"/></g></g>
    <g>
        <g>
            <path fill="#FFFFFF"
                  d="M128.4,304c-35.2,0-64,28.8-64,64s28.8,64,64,64s64-28.8,64-64S163.6,304,128.4,304z M128.4,416c-26.4,0-48-21.6-48-48    c0-26.4,21.6-48,48-48s48,21.6,48,48C176.4,394.4,154.8,416,128.4,416z"/></g></g>
    <g></g>
    <g></g>
    <g></g>
    <g></g>
    <g></g>
    <g></g>
    <g></g>
    <g></g>
    <g></g>
    <g></g>
    <g></g>
    <g></g>
    <g></g>
    <g></g>
    <g></g></svg>